<mxfile host="app.diagrams.net" modified="2023-09-05T01:32:55.220Z" agent="Mozilla/5.0 (Windows NT 10.0; Win64; x64) AppleWebKit/537.36 (KHTML, like Gecko) Chrome/116.0.0.0 Safari/537.36" etag="ugwXDgfeEW25M5ol8Wtu" version="21.7.2" type="device">
  <diagram name="PÃ¡gina-1" id="Y2e2PwP3tprST0UV3DZ8">
    <mxGraphModel dx="1111" dy="787" grid="0" gridSize="10" guides="1" tooltips="1" connect="1" arrows="1" fold="1" page="1" pageScale="1" pageWidth="827" pageHeight="1169" math="0" shadow="0">
      <root>
        <mxCell id="0" />
        <mxCell id="1" parent="0" />
        <mxCell id="7JLwXJkkDd5_s9MITKsb-8" style="edgeStyle=orthogonalEdgeStyle;shape=connector;rounded=0;orthogonalLoop=1;jettySize=auto;html=1;entryX=0.5;entryY=0;entryDx=0;entryDy=0;labelBackgroundColor=default;strokeColor=default;fontFamily=Helvetica;fontSize=11;fontColor=default;endArrow=none;endFill=0;" edge="1" parent="1" source="7JLwXJkkDd5_s9MITKsb-1" target="7JLwXJkkDd5_s9MITKsb-2">
          <mxGeometry relative="1" as="geometry" />
        </mxCell>
        <mxCell id="7JLwXJkkDd5_s9MITKsb-1" value="Pessoa" style="rounded=0;whiteSpace=wrap;html=1;" vertex="1" parent="1">
          <mxGeometry x="170" y="70" width="120" height="60" as="geometry" />
        </mxCell>
        <mxCell id="7JLwXJkkDd5_s9MITKsb-9" style="edgeStyle=orthogonalEdgeStyle;shape=connector;rounded=0;orthogonalLoop=1;jettySize=auto;html=1;entryX=0.5;entryY=0;entryDx=0;entryDy=0;labelBackgroundColor=default;strokeColor=default;fontFamily=Helvetica;fontSize=11;fontColor=default;endArrow=none;endFill=0;" edge="1" parent="1" source="7JLwXJkkDd5_s9MITKsb-2" target="7JLwXJkkDd5_s9MITKsb-3">
          <mxGeometry relative="1" as="geometry" />
        </mxCell>
        <mxCell id="7JLwXJkkDd5_s9MITKsb-2" value="possui" style="rhombus;whiteSpace=wrap;html=1;" vertex="1" parent="1">
          <mxGeometry x="190" y="200" width="80" height="50" as="geometry" />
        </mxCell>
        <mxCell id="7JLwXJkkDd5_s9MITKsb-3" value="Email" style="rounded=0;whiteSpace=wrap;html=1;" vertex="1" parent="1">
          <mxGeometry x="170" y="310" width="120" height="60" as="geometry" />
        </mxCell>
        <mxCell id="7JLwXJkkDd5_s9MITKsb-4" value="Telefones" style="rounded=0;whiteSpace=wrap;html=1;" vertex="1" parent="1">
          <mxGeometry x="470" y="70" width="120" height="60" as="geometry" />
        </mxCell>
        <mxCell id="7JLwXJkkDd5_s9MITKsb-6" style="edgeStyle=orthogonalEdgeStyle;rounded=0;orthogonalLoop=1;jettySize=auto;html=1;entryX=1;entryY=0.5;entryDx=0;entryDy=0;endArrow=none;endFill=0;" edge="1" parent="1" source="7JLwXJkkDd5_s9MITKsb-5" target="7JLwXJkkDd5_s9MITKsb-1">
          <mxGeometry relative="1" as="geometry" />
        </mxCell>
        <mxCell id="7JLwXJkkDd5_s9MITKsb-7" style="edgeStyle=orthogonalEdgeStyle;shape=connector;rounded=0;orthogonalLoop=1;jettySize=auto;html=1;entryX=0;entryY=0.5;entryDx=0;entryDy=0;labelBackgroundColor=default;strokeColor=default;fontFamily=Helvetica;fontSize=11;fontColor=default;endArrow=none;endFill=0;" edge="1" parent="1" source="7JLwXJkkDd5_s9MITKsb-5" target="7JLwXJkkDd5_s9MITKsb-4">
          <mxGeometry relative="1" as="geometry" />
        </mxCell>
        <mxCell id="7JLwXJkkDd5_s9MITKsb-5" value="possui" style="rhombus;whiteSpace=wrap;html=1;" vertex="1" parent="1">
          <mxGeometry x="340" y="75" width="80" height="50" as="geometry" />
        </mxCell>
        <mxCell id="7JLwXJkkDd5_s9MITKsb-11" style="edgeStyle=orthogonalEdgeStyle;shape=connector;rounded=0;orthogonalLoop=1;jettySize=auto;html=1;entryX=0;entryY=0.5;entryDx=0;entryDy=0;labelBackgroundColor=default;strokeColor=default;fontFamily=Helvetica;fontSize=11;fontColor=default;endArrow=none;endFill=0;" edge="1" parent="1" source="7JLwXJkkDd5_s9MITKsb-10" target="7JLwXJkkDd5_s9MITKsb-1">
          <mxGeometry relative="1" as="geometry" />
        </mxCell>
        <mxCell id="7JLwXJkkDd5_s9MITKsb-10" value="CNH" style="ellipse;whiteSpace=wrap;html=1;fontFamily=Helvetica;fontSize=11;fontColor=default;" vertex="1" parent="1">
          <mxGeometry x="30" y="80" width="80" height="40" as="geometry" />
        </mxCell>
        <mxCell id="7JLwXJkkDd5_s9MITKsb-12" value="1" style="text;html=1;align=center;verticalAlign=middle;resizable=0;points=[];autosize=1;strokeColor=none;fillColor=none;fontSize=11;fontFamily=Helvetica;fontColor=default;" vertex="1" parent="1">
          <mxGeometry x="235" y="128" width="30" height="30" as="geometry" />
        </mxCell>
        <mxCell id="7JLwXJkkDd5_s9MITKsb-13" value="1" style="text;html=1;align=center;verticalAlign=middle;resizable=0;points=[];autosize=1;strokeColor=none;fillColor=none;fontSize=11;fontFamily=Helvetica;fontColor=default;" vertex="1" parent="1">
          <mxGeometry x="290" y="70" width="30" height="30" as="geometry" />
        </mxCell>
        <mxCell id="7JLwXJkkDd5_s9MITKsb-14" value="N" style="text;html=1;align=center;verticalAlign=middle;resizable=0;points=[];autosize=1;strokeColor=none;fillColor=none;fontSize=11;fontFamily=Helvetica;fontColor=default;" vertex="1" parent="1">
          <mxGeometry x="440" y="70" width="30" height="30" as="geometry" />
        </mxCell>
        <mxCell id="7JLwXJkkDd5_s9MITKsb-15" value="N" style="text;html=1;align=center;verticalAlign=middle;resizable=0;points=[];autosize=1;strokeColor=none;fillColor=none;fontSize=11;fontFamily=Helvetica;fontColor=default;" vertex="1" parent="1">
          <mxGeometry x="235" y="280" width="30" height="30" as="geometry" />
        </mxCell>
        <mxCell id="7JLwXJkkDd5_s9MITKsb-16" value="Pessoa" style="shape=table;startSize=30;container=1;collapsible=1;childLayout=tableLayout;fixedRows=1;rowLines=0;fontStyle=1;align=center;resizeLast=1;html=1;fontFamily=Helvetica;fontSize=11;fontColor=default;" vertex="1" parent="1">
          <mxGeometry x="40" y="460" width="180" height="120" as="geometry" />
        </mxCell>
        <mxCell id="7JLwXJkkDd5_s9MITKsb-17" value="" style="shape=tableRow;horizontal=0;startSize=0;swimlaneHead=0;swimlaneBody=0;fillColor=none;collapsible=0;dropTarget=0;points=[[0,0.5],[1,0.5]];portConstraint=eastwest;top=0;left=0;right=0;bottom=1;fontFamily=Helvetica;fontSize=11;fontColor=default;" vertex="1" parent="7JLwXJkkDd5_s9MITKsb-16">
          <mxGeometry y="30" width="180" height="30" as="geometry" />
        </mxCell>
        <mxCell id="7JLwXJkkDd5_s9MITKsb-18" value="PK" style="shape=partialRectangle;connectable=0;fillColor=none;top=0;left=0;bottom=0;right=0;fontStyle=1;overflow=hidden;whiteSpace=wrap;html=1;fontFamily=Helvetica;fontSize=11;fontColor=default;" vertex="1" parent="7JLwXJkkDd5_s9MITKsb-17">
          <mxGeometry width="30" height="30" as="geometry">
            <mxRectangle width="30" height="30" as="alternateBounds" />
          </mxGeometry>
        </mxCell>
        <mxCell id="7JLwXJkkDd5_s9MITKsb-19" value="IdPessoa" style="shape=partialRectangle;connectable=0;fillColor=none;top=0;left=0;bottom=0;right=0;align=left;spacingLeft=6;fontStyle=5;overflow=hidden;whiteSpace=wrap;html=1;fontFamily=Helvetica;fontSize=11;fontColor=default;" vertex="1" parent="7JLwXJkkDd5_s9MITKsb-17">
          <mxGeometry x="30" width="150" height="30" as="geometry">
            <mxRectangle width="150" height="30" as="alternateBounds" />
          </mxGeometry>
        </mxCell>
        <mxCell id="7JLwXJkkDd5_s9MITKsb-72" style="shape=tableRow;horizontal=0;startSize=0;swimlaneHead=0;swimlaneBody=0;fillColor=none;collapsible=0;dropTarget=0;points=[[0,0.5],[1,0.5]];portConstraint=eastwest;top=0;left=0;right=0;bottom=0;fontFamily=Helvetica;fontSize=11;fontColor=default;" vertex="1" parent="7JLwXJkkDd5_s9MITKsb-16">
          <mxGeometry y="60" width="180" height="30" as="geometry" />
        </mxCell>
        <mxCell id="7JLwXJkkDd5_s9MITKsb-73" style="shape=partialRectangle;connectable=0;fillColor=none;top=0;left=0;bottom=0;right=0;editable=1;overflow=hidden;whiteSpace=wrap;html=1;fontFamily=Helvetica;fontSize=11;fontColor=default;" vertex="1" parent="7JLwXJkkDd5_s9MITKsb-72">
          <mxGeometry width="30" height="30" as="geometry">
            <mxRectangle width="30" height="30" as="alternateBounds" />
          </mxGeometry>
        </mxCell>
        <mxCell id="7JLwXJkkDd5_s9MITKsb-74" value="Nome" style="shape=partialRectangle;connectable=0;fillColor=none;top=0;left=0;bottom=0;right=0;align=left;spacingLeft=6;overflow=hidden;whiteSpace=wrap;html=1;fontFamily=Helvetica;fontSize=11;fontColor=default;" vertex="1" parent="7JLwXJkkDd5_s9MITKsb-72">
          <mxGeometry x="30" width="150" height="30" as="geometry">
            <mxRectangle width="150" height="30" as="alternateBounds" />
          </mxGeometry>
        </mxCell>
        <mxCell id="7JLwXJkkDd5_s9MITKsb-20" value="" style="shape=tableRow;horizontal=0;startSize=0;swimlaneHead=0;swimlaneBody=0;fillColor=none;collapsible=0;dropTarget=0;points=[[0,0.5],[1,0.5]];portConstraint=eastwest;top=0;left=0;right=0;bottom=0;fontFamily=Helvetica;fontSize=11;fontColor=default;" vertex="1" parent="7JLwXJkkDd5_s9MITKsb-16">
          <mxGeometry y="90" width="180" height="30" as="geometry" />
        </mxCell>
        <mxCell id="7JLwXJkkDd5_s9MITKsb-21" value="" style="shape=partialRectangle;connectable=0;fillColor=none;top=0;left=0;bottom=0;right=0;editable=1;overflow=hidden;whiteSpace=wrap;html=1;fontFamily=Helvetica;fontSize=11;fontColor=default;" vertex="1" parent="7JLwXJkkDd5_s9MITKsb-20">
          <mxGeometry width="30" height="30" as="geometry">
            <mxRectangle width="30" height="30" as="alternateBounds" />
          </mxGeometry>
        </mxCell>
        <mxCell id="7JLwXJkkDd5_s9MITKsb-22" value="CNH" style="shape=partialRectangle;connectable=0;fillColor=none;top=0;left=0;bottom=0;right=0;align=left;spacingLeft=6;overflow=hidden;whiteSpace=wrap;html=1;fontFamily=Helvetica;fontSize=11;fontColor=default;" vertex="1" parent="7JLwXJkkDd5_s9MITKsb-20">
          <mxGeometry x="30" width="150" height="30" as="geometry">
            <mxRectangle width="150" height="30" as="alternateBounds" />
          </mxGeometry>
        </mxCell>
        <mxCell id="7JLwXJkkDd5_s9MITKsb-42" value="Telefone" style="shape=table;startSize=30;container=1;collapsible=1;childLayout=tableLayout;fixedRows=1;rowLines=0;fontStyle=1;align=center;resizeLast=1;html=1;whiteSpace=wrap;fontFamily=Helvetica;fontSize=11;fontColor=default;" vertex="1" parent="1">
          <mxGeometry x="324" y="640" width="180" height="120" as="geometry" />
        </mxCell>
        <mxCell id="7JLwXJkkDd5_s9MITKsb-43" value="" style="shape=tableRow;horizontal=0;startSize=0;swimlaneHead=0;swimlaneBody=0;fillColor=none;collapsible=0;dropTarget=0;points=[[0,0.5],[1,0.5]];portConstraint=eastwest;top=0;left=0;right=0;bottom=0;html=1;fontFamily=Helvetica;fontSize=11;fontColor=default;" vertex="1" parent="7JLwXJkkDd5_s9MITKsb-42">
          <mxGeometry y="30" width="180" height="30" as="geometry" />
        </mxCell>
        <mxCell id="7JLwXJkkDd5_s9MITKsb-44" value="PK" style="shape=partialRectangle;connectable=0;fillColor=none;top=0;left=0;bottom=0;right=0;fontStyle=1;overflow=hidden;html=1;whiteSpace=wrap;fontFamily=Helvetica;fontSize=11;fontColor=default;" vertex="1" parent="7JLwXJkkDd5_s9MITKsb-43">
          <mxGeometry width="60" height="30" as="geometry">
            <mxRectangle width="60" height="30" as="alternateBounds" />
          </mxGeometry>
        </mxCell>
        <mxCell id="7JLwXJkkDd5_s9MITKsb-45" value="IdTelefone" style="shape=partialRectangle;connectable=0;fillColor=none;top=0;left=0;bottom=0;right=0;align=left;spacingLeft=6;fontStyle=5;overflow=hidden;html=1;whiteSpace=wrap;fontFamily=Helvetica;fontSize=11;fontColor=default;" vertex="1" parent="7JLwXJkkDd5_s9MITKsb-43">
          <mxGeometry x="60" width="120" height="30" as="geometry">
            <mxRectangle width="120" height="30" as="alternateBounds" />
          </mxGeometry>
        </mxCell>
        <mxCell id="7JLwXJkkDd5_s9MITKsb-46" value="" style="shape=tableRow;horizontal=0;startSize=0;swimlaneHead=0;swimlaneBody=0;fillColor=none;collapsible=0;dropTarget=0;points=[[0,0.5],[1,0.5]];portConstraint=eastwest;top=0;left=0;right=0;bottom=1;html=1;fontFamily=Helvetica;fontSize=11;fontColor=default;" vertex="1" parent="7JLwXJkkDd5_s9MITKsb-42">
          <mxGeometry y="60" width="180" height="30" as="geometry" />
        </mxCell>
        <mxCell id="7JLwXJkkDd5_s9MITKsb-47" value="FK" style="shape=partialRectangle;connectable=0;fillColor=none;top=0;left=0;bottom=0;right=0;fontStyle=1;overflow=hidden;html=1;whiteSpace=wrap;fontFamily=Helvetica;fontSize=11;fontColor=default;" vertex="1" parent="7JLwXJkkDd5_s9MITKsb-46">
          <mxGeometry width="60" height="30" as="geometry">
            <mxRectangle width="60" height="30" as="alternateBounds" />
          </mxGeometry>
        </mxCell>
        <mxCell id="7JLwXJkkDd5_s9MITKsb-48" value="IdPessoa" style="shape=partialRectangle;connectable=0;fillColor=none;top=0;left=0;bottom=0;right=0;align=left;spacingLeft=6;fontStyle=5;overflow=hidden;html=1;whiteSpace=wrap;fontFamily=Helvetica;fontSize=11;fontColor=default;" vertex="1" parent="7JLwXJkkDd5_s9MITKsb-46">
          <mxGeometry x="60" width="120" height="30" as="geometry">
            <mxRectangle width="120" height="30" as="alternateBounds" />
          </mxGeometry>
        </mxCell>
        <mxCell id="7JLwXJkkDd5_s9MITKsb-49" value="" style="shape=tableRow;horizontal=0;startSize=0;swimlaneHead=0;swimlaneBody=0;fillColor=none;collapsible=0;dropTarget=0;points=[[0,0.5],[1,0.5]];portConstraint=eastwest;top=0;left=0;right=0;bottom=0;html=1;fontFamily=Helvetica;fontSize=11;fontColor=default;" vertex="1" parent="7JLwXJkkDd5_s9MITKsb-42">
          <mxGeometry y="90" width="180" height="30" as="geometry" />
        </mxCell>
        <mxCell id="7JLwXJkkDd5_s9MITKsb-50" value="" style="shape=partialRectangle;connectable=0;fillColor=none;top=0;left=0;bottom=0;right=0;editable=1;overflow=hidden;html=1;whiteSpace=wrap;fontFamily=Helvetica;fontSize=11;fontColor=default;" vertex="1" parent="7JLwXJkkDd5_s9MITKsb-49">
          <mxGeometry width="60" height="30" as="geometry">
            <mxRectangle width="60" height="30" as="alternateBounds" />
          </mxGeometry>
        </mxCell>
        <mxCell id="7JLwXJkkDd5_s9MITKsb-51" value="Telefone" style="shape=partialRectangle;connectable=0;fillColor=none;top=0;left=0;bottom=0;right=0;align=left;spacingLeft=6;overflow=hidden;html=1;whiteSpace=wrap;fontFamily=Helvetica;fontSize=11;fontColor=default;" vertex="1" parent="7JLwXJkkDd5_s9MITKsb-49">
          <mxGeometry x="60" width="120" height="30" as="geometry">
            <mxRectangle width="120" height="30" as="alternateBounds" />
          </mxGeometry>
        </mxCell>
        <mxCell id="7JLwXJkkDd5_s9MITKsb-57" value="Email" style="shape=table;startSize=30;container=1;collapsible=1;childLayout=tableLayout;fixedRows=1;rowLines=0;fontStyle=1;align=center;resizeLast=1;html=1;whiteSpace=wrap;fontFamily=Helvetica;fontSize=11;fontColor=default;" vertex="1" parent="1">
          <mxGeometry x="324" y="460" width="180" height="120" as="geometry" />
        </mxCell>
        <mxCell id="7JLwXJkkDd5_s9MITKsb-58" value="" style="shape=tableRow;horizontal=0;startSize=0;swimlaneHead=0;swimlaneBody=0;fillColor=none;collapsible=0;dropTarget=0;points=[[0,0.5],[1,0.5]];portConstraint=eastwest;top=0;left=0;right=0;bottom=0;html=1;fontFamily=Helvetica;fontSize=11;fontColor=default;" vertex="1" parent="7JLwXJkkDd5_s9MITKsb-57">
          <mxGeometry y="30" width="180" height="30" as="geometry" />
        </mxCell>
        <mxCell id="7JLwXJkkDd5_s9MITKsb-59" value="PK" style="shape=partialRectangle;connectable=0;fillColor=none;top=0;left=0;bottom=0;right=0;fontStyle=1;overflow=hidden;html=1;whiteSpace=wrap;fontFamily=Helvetica;fontSize=11;fontColor=default;" vertex="1" parent="7JLwXJkkDd5_s9MITKsb-58">
          <mxGeometry width="60" height="30" as="geometry">
            <mxRectangle width="60" height="30" as="alternateBounds" />
          </mxGeometry>
        </mxCell>
        <mxCell id="7JLwXJkkDd5_s9MITKsb-60" value="IdEmail" style="shape=partialRectangle;connectable=0;fillColor=none;top=0;left=0;bottom=0;right=0;align=left;spacingLeft=6;fontStyle=5;overflow=hidden;html=1;whiteSpace=wrap;fontFamily=Helvetica;fontSize=11;fontColor=default;" vertex="1" parent="7JLwXJkkDd5_s9MITKsb-58">
          <mxGeometry x="60" width="120" height="30" as="geometry">
            <mxRectangle width="120" height="30" as="alternateBounds" />
          </mxGeometry>
        </mxCell>
        <mxCell id="7JLwXJkkDd5_s9MITKsb-61" value="" style="shape=tableRow;horizontal=0;startSize=0;swimlaneHead=0;swimlaneBody=0;fillColor=none;collapsible=0;dropTarget=0;points=[[0,0.5],[1,0.5]];portConstraint=eastwest;top=0;left=0;right=0;bottom=1;html=1;fontFamily=Helvetica;fontSize=11;fontColor=default;" vertex="1" parent="7JLwXJkkDd5_s9MITKsb-57">
          <mxGeometry y="60" width="180" height="30" as="geometry" />
        </mxCell>
        <mxCell id="7JLwXJkkDd5_s9MITKsb-62" value="FK" style="shape=partialRectangle;connectable=0;fillColor=none;top=0;left=0;bottom=0;right=0;fontStyle=1;overflow=hidden;html=1;whiteSpace=wrap;fontFamily=Helvetica;fontSize=11;fontColor=default;" vertex="1" parent="7JLwXJkkDd5_s9MITKsb-61">
          <mxGeometry width="60" height="30" as="geometry">
            <mxRectangle width="60" height="30" as="alternateBounds" />
          </mxGeometry>
        </mxCell>
        <mxCell id="7JLwXJkkDd5_s9MITKsb-63" value="IdPessoa" style="shape=partialRectangle;connectable=0;fillColor=none;top=0;left=0;bottom=0;right=0;align=left;spacingLeft=6;fontStyle=5;overflow=hidden;html=1;whiteSpace=wrap;fontFamily=Helvetica;fontSize=11;fontColor=default;" vertex="1" parent="7JLwXJkkDd5_s9MITKsb-61">
          <mxGeometry x="60" width="120" height="30" as="geometry">
            <mxRectangle width="120" height="30" as="alternateBounds" />
          </mxGeometry>
        </mxCell>
        <mxCell id="7JLwXJkkDd5_s9MITKsb-64" value="" style="shape=tableRow;horizontal=0;startSize=0;swimlaneHead=0;swimlaneBody=0;fillColor=none;collapsible=0;dropTarget=0;points=[[0,0.5],[1,0.5]];portConstraint=eastwest;top=0;left=0;right=0;bottom=0;html=1;fontFamily=Helvetica;fontSize=11;fontColor=default;" vertex="1" parent="7JLwXJkkDd5_s9MITKsb-57">
          <mxGeometry y="90" width="180" height="30" as="geometry" />
        </mxCell>
        <mxCell id="7JLwXJkkDd5_s9MITKsb-65" value="" style="shape=partialRectangle;connectable=0;fillColor=none;top=0;left=0;bottom=0;right=0;editable=1;overflow=hidden;html=1;whiteSpace=wrap;fontFamily=Helvetica;fontSize=11;fontColor=default;" vertex="1" parent="7JLwXJkkDd5_s9MITKsb-64">
          <mxGeometry width="60" height="30" as="geometry">
            <mxRectangle width="60" height="30" as="alternateBounds" />
          </mxGeometry>
        </mxCell>
        <mxCell id="7JLwXJkkDd5_s9MITKsb-66" value="Email" style="shape=partialRectangle;connectable=0;fillColor=none;top=0;left=0;bottom=0;right=0;align=left;spacingLeft=6;overflow=hidden;html=1;whiteSpace=wrap;fontFamily=Helvetica;fontSize=11;fontColor=default;" vertex="1" parent="7JLwXJkkDd5_s9MITKsb-64">
          <mxGeometry x="60" width="120" height="30" as="geometry">
            <mxRectangle width="120" height="30" as="alternateBounds" />
          </mxGeometry>
        </mxCell>
        <mxCell id="7JLwXJkkDd5_s9MITKsb-70" value="" style="edgeStyle=entityRelationEdgeStyle;fontSize=12;html=1;endArrow=ERoneToMany;rounded=0;labelBackgroundColor=default;strokeColor=default;fontFamily=Helvetica;fontColor=default;shape=connector;exitX=1;exitY=0.5;exitDx=0;exitDy=0;entryX=0;entryY=0.5;entryDx=0;entryDy=0;" edge="1" parent="1" source="7JLwXJkkDd5_s9MITKsb-17" target="7JLwXJkkDd5_s9MITKsb-61">
          <mxGeometry width="100" height="100" relative="1" as="geometry">
            <mxPoint x="300" y="540" as="sourcePoint" />
            <mxPoint x="400" y="440" as="targetPoint" />
          </mxGeometry>
        </mxCell>
        <mxCell id="7JLwXJkkDd5_s9MITKsb-71" value="" style="edgeStyle=entityRelationEdgeStyle;fontSize=12;html=1;endArrow=ERoneToMany;rounded=0;labelBackgroundColor=default;strokeColor=default;fontFamily=Helvetica;fontColor=default;shape=connector;exitX=1;exitY=0.5;exitDx=0;exitDy=0;entryX=0;entryY=0.5;entryDx=0;entryDy=0;" edge="1" parent="1" source="7JLwXJkkDd5_s9MITKsb-17" target="7JLwXJkkDd5_s9MITKsb-46">
          <mxGeometry width="100" height="100" relative="1" as="geometry">
            <mxPoint x="300" y="540" as="sourcePoint" />
            <mxPoint x="400" y="440" as="targetPoint" />
          </mxGeometry>
        </mxCell>
        <mxCell id="7JLwXJkkDd5_s9MITKsb-75" value="" style="shape=image;verticalLabelPosition=bottom;labelBackgroundColor=default;verticalAlign=top;aspect=fixed;imageAspect=0;image=data:image/png,iVBORw0KGgoAAAANSUhEUgAAAocAAAC8CAIAAACFVJPyAAAAAXNSR0IArs4c6QAAAARnQU1BAACxjwv8YQUAAAAJcEhZcwAADsMAAA7DAcdvqGQAABsZSURBVHhe7Z1bguMoEkVzXbUgr6dWk5vpn9rJTAABBAg5lbbkAPucnw6Ch0JXwK2c6c76+l/k379/KVgU6veF+n2hfl+o35c3qx9XngLq94X6faF+X6jfl67+L2kLXwDPkTbSoug7AAB4kC4idWX9x5cGAA+w+v5h/wOAF939gyvDCeDKAACPgSvD+eDKAACPgSvD+eDKAACPgSvD+eDKAACPgSvD+eDK8MZ8376+bt/a2OW/v39kH319/fn7n2YADtHdPx/kyuFoVX4+ZHAcEVSjNVm9fvgN7U2g3LsQDrnyMesG2CL7T6PIZ7ly+VNs/GMtR+g0Vt8/n7D/oSfcAod+sD3qyvyUDA+BKyfsQcv/01OgHj6T1XnbzN5cm/4E85fX1GhNVq8fHiEc0s5Ix8e5deXBGJsa5crkkLx9h/Ui9unjR8MnIJ9co8inunI4Atrq/Tml0/FJ2cQ2kw6SnauN71t+Ul3wrVl9/3zC/oeezeEcXwVtfm9M6KiLmcugacQwjzu0LHwAuLLG2uhPQB7VHKvIOGMT9gmZfsx7givDenRnv2ua4xyui3SI98c0p3/3Zmg7mvTOsvABfLQrV5rz05H7clc9H10mrGjPXj1y7ap2zHsiL6nRmqxePzxCOKXG/NpDG9kc9P0xjZPu3gwliJQpd5aFD0C+t0aRz3LlwU5vj8mI/oTVTD83P8HO+Hn9d2D1/fMJ+x96wtk0V8L+Ua0H+s5xzqc/sHczdB07afg0cOWOcCBG+cL2xJRMCEpfXage4hh+wHnDlWE9+qPftwvmQO+Oae+XnZshhvU6qFP2l4UPAFfeEo9QIQ2KdqqkY7TNBEzWrF6yf/7+vZnR74q8qUZrsnr98AgDKxxdBek410M8HhMGNYsNb4Ywd+TKws6y8AHIB9co8kGuDNex+v5h/wOAF7gynA+uDADwGLgynA+uDADwGLgynA+uDADwGL0r/4tIFuAZ0kZaFH0HAAAP0kWkrqz/4GcdV6jfl9XrXx309wX9fen01wa3qi/U78vq9a8O+vuC/r50+muDW9UX6vdl9fpXB/19QX9fOv21wa3qC/X7snr9q4P+vqC/L53+2uBW9YX6fVm9/tVBf1/Q35dOf20c+ir9r5SbiNV3FfX74lb/o2cq/DrHn3+Ra/4ljtP/+saJ9s/Et9x1TKT/iDfb7Vs6/bVhs7sSmP0axlR+FuxqpAiN5qvtCFKoRgn7O3Fbze2WM79UN4R91wt3pxSm0ZpcXf9PZ6rds8q9rbu7oOXQoCmQt9XoVfz0RTQ0rKHkY8jrafQKWl2VD9rtW+T9NYpow2Z33046zH4td350EGc5uvqnqu0IzVcJH6C8QXiF1Ajv9ad5nfB22upduG9fTLerluPq+sMn/elMBQ5/tt0FLd3iE/P6/XPki1j9wpf5WfFV8Tm/n7rbt3T6a8NmGwniZozEv/1otF/bGXWCFdJkdd42szfXpvc+jXRpNF9tR5DpGrXyW+J7fYfn2ffROITmrTftizH1L8nV9Tcfte6Z5kwFBp+tjrb7ot0lgzE2Nco11dy+w3qRvppMfdgVyAM0ehVHvkg8cUUOO2OsjMnqvG1mV1WTvlbrEfJQjV5JeGW734SxOG+227fIIzWKaMNmjQSh0Fx4fBPTqC9kRln5ajpJkbKJbSammrna+L7lJ9UFN3T1T1XbEWr9g6cr+l7mSWZs//wn6/kt3a5ajqvrN3vPfpmQvv/Zxpu2ze+NCR11sdDTDNNGDPO4Q8tewOv3j3k7+3IhbRutfgOVajpEOZvYZmKqmauN026Sx3i9/oHNq+5tOZvfGxM66mJG2qYRwzzu0LIvodNfGzZb6wvV5UoF89pWgTA+Nfq3yaOMKso4YxP2CZl+TKWrf6rajlDrDxWP1ylPLS9lnhmL7tjUeB3yNI3W5Or661ft9km3lUKvaXdNM7pdcDymWbx7bu1rO5r0zrIX8Pr9I+/z4xex7xzG31cm5BuJdzI2YZ+Q6ce8Ap/z2ynZNY04Qfwkyf6YRstdnduOJr2z7Evo9NeGzUpFWniNIqbU0FMo9Yd368h9uau+a5fpnmXka1e1YyrSodF8tR1BJmvUP6siPbnCMEjiWkcspNa/bV9MrX9Nrq6/ftXu+5qPGug+W7u9Itpbl9kf0yzePTdOi+0SRMqUO8tegKyu0auoenTKGNFCT6G8/R1lcldVqst0zzLit6vaMa9AHqnRKwnvXKXqJIhsZNsfYz/cvs4liJQpd5Z9CfI8jSLasNlWAvNu5rWtApVu/IBerZrp5+Yn2Bn763f1T1XbEUz92zKU/NTc+Lr9rc8Mj7dv3bcvpttVy3F1/fWjdvuk+aibz7a/qXYXtNjF+2Glr+3YSV/N6/fProBGNKtf5Wdl6tqZnNn7CnbGa5VP+Jzf8KZG4P0Xr/LcESdrGdjTuevYSb+eTn9t2KzZISHUNw11j/9cYgiDRvnC9u1LJj4g99WFumq62Zmu/qlqO4KtPz6sVirN8jRTfxxVn1mLSvTti7H1r8jV9Xc7Rb9M+ob3PtvuZzQL7n/qZsfEh+UdauaEsG7cOmV/2Qt4/f458kUa/So/KtNKGiiZ+IDtV+iq6WZfz+v1D/RC9u2CkWd3TPu1dnSOYRW3Ttlf9iV0+mvDZo0E+naR27fEufBGgYY6IZAGhRUzaeVtJmCyZvWSjf9+ZB1tkV6N5qvtCLKCRpGm0Py4/r3SIH1maNjevn0xUohGa3J1/WGflN1Rv25zpgKDz1ZHB3Jns+DOmM2OKbvV7uEwt9nmbVelWepkZHmNXsWRL9LrVxkpY9TVlbeZgMma1Uv2yZvkMeS5Gr2SoGIn8HjLBXGqJOMxYVCz2FDnMLf5FG1XpVnqcuSBGkW00WWXg/p9oX54BvT3Bf196fTXBreqL9Tvy+r1rw76+4L+vnT6a4Nb1Rfq92X1+lcH/X1Bf186/bXBreoL9fuyev2rg/6+oL8vnf5f/yKSBXiGtJEWRd8BAMCDdBGpK+s/+FnHFer3ZfX6Vwf9fUF/Xzr9tcGt6gv1+7J6/auD/r6gvy+d/trgVvWF+n1Zvf7VQX9f0N+XTn9tcKv6Qv2+rF7/6qC/L+jvS6e/NrhVfaF+X1avf3XQ3xf096XTXxvcqkr/a9teBPr7snr9q4P+vpyu/3/tb5I9htPlOwGd/tpY6FSkX1fafT1bv/n9p8Ivf6Ps/K5cX88U6ptcav8MWbr+4YlYC/T35Wz95Zpo9BhKtE1KphlzxWV1RfJpZDmNItrosrMSJPnz91u+ZieJrV8Gld744X9jzHbyCzmqfxIg1Rfi+Gq+ycgi+2eXZetPn2RwItYC/X05WX9RpcoxlGhHNzsxDUmNEF92gz2ZPINOf20sdSqC1WZtFFu/yGV6rXjpD2cJI2hNx7+vRSfHZaQZSIN3pp+BrKjRXdo31xf1TSYO1j8ti9fffpkFQX9fztVfrobNBTmUaJust8rwtpkweQqd/tpY6lS04kRs/Y1aZqzkG3/WtF0tDLHDzeYKw5rppxrzUf3tO5SGbzJytP5ZWbx+u4eXBP19OVX/oRoHkyGjt8rxK8g3eQad/tpY6lQMPrCtX9QqvUG51Ogn5VFmGwTq5Fb0bljzkBM4rn8oS/nzJ9fkmxSkrdGaLF7/4ESsBfr7cqr+4ZIoN0NmKNEgKZNL5sl76WXJ55HlNIpoo8vOzeBb2vqNcCJdHhcmdcS+MNpoK02d0nZ0w+JyZ30SQarR6Bf0NUV8kg/VPxGL1z+88lYC/X05Vf/hdTGUaJCUySMlH7yXMi9LPkinvzaWOhWDb2nrF7UG3zVMGmnY5evkVvR++vghD/OI/sNd4ZRcav8MWLz+wYlYC/T35VT9h/fFUKJBUiYPlHz0XlJelnyUTn9tLHUqBt/S1i9yjU7I3skJ6mo+DCmNTvXYl9t7az3M7/U3ZVfckkvtnwGL13/6fnw16O/LqfoP1TiYDJmhAW7mTph8nE5/bSxyKoIWlqKLxCkQZNCOXuGTV8qgmr59S6z58Kx2f5inn/hBIrKkRvcxb1BL8E1GJKPRmixb/+6JWAupXKPFQP8B7dU5lGhPN8nn8GU32JPJM5AFNYpoo8suB/X7Qv3wDOjvy8n6G2/9Ha2ffw6d/trgVvWF+n1Zvf7VQX9fztb/QVv+VFPu9dcGt6ov1O/L6vWvDvr7crr+//F7sH9Dp782uFV9oX5fVq9/ddDfF/T3pdP/619EsgDPkDbSoug7AAB4kC4idWX9Bz/ruEL9vqxe/+qgvy/o70unvza4VX2hfl9Wr3910N8X9Pel018b3Kq+UL8vq9e/OujvC/r70umvDW5VX6jfl9XrXx309wX9fen018Yn3qrhP45L/3WcRM7/ldwn6j8Tq9e/OujvC/r70umvjc+7VdN/UBf9+KH/tu5cPk//uVi9/tVBf19O15//XvlXdPprY5VTYX4RafPjrTQ1ioRhP/z0m7dN/InZfS909d8jFpyoZfsm19k/e6xb/96JWAspXqPVQP8Rck3Y60FValKjZL6UM1dcVlckn0ZW0yiijS47KeajxS9aT0FXf+hd6ogc1l82hZUgxb7JwBr7Z59V65evYD/Isr6A/r6crL+5J2JDWt/NfTFObidacVM8YfIEOv21sd6paEXp6g+d9YCEVsYcG5MeZ194xuRhGt2nebG8RXyTkaP1z8rq9QfC16lfZC3Q35dz9Zerod4TylCdbdLcKsPbZsLkGXT6a2O9UyGaVIH6+o16ISwDTeP7liUNSY33Bl/Ocf3De4eqTNXeSUGyGq3J6vUHwreRT7Mk6O/Lqfr3l0PkYDJkiohP3ksvSz6PLKpRRBtddnp6Ubr6Q7dI10QJUXUjZhlzZPA1/Er/uDP6/1vDNykJjdZk9fq3J2It0N+XU/UPN4S9RiNDfQZJmWwzT95LL0s+iaynUUQbXXZygi6tKF391V7DULtDak+IKjG3P/hqpAKNfqCWGOtPKvgmA4frn5TV6w8fpn6N9UB/X07Vv94ShnBhbBQaJGVyzgxvmwmTJ9Dpr42FTkUQZqNGV3+QrIqXooTMjpOrvGbM3uDrOah/KLBWpC3fZGostH+GLF3/8ESsBfr7cqr+9m4ttJeHMkiWO3d420yY1NZzdPprY5FTEYQYKtHVb/ZFnGL9N003I0Ko8c7g6zmqv93wpVjfZGSR/bPLsvXHz/CqXXod6O/LqfoHTTaSHEyGjN4qL7vBnkyeQae/NtY4FUGUlqyKhPGfZYSVy0wzW6Bk//z9a36313jw1cjTNPoJq0Ep0DcpSFOjNVm1fvs9EmfdE69FCtdoLdB/RFCl6tBrFO+NYTINrveKHXT/CvJNPo+splFEG112OajfF+qHZ0B/X07WX7zrMcsKprfmn2ueo9NfG9yqvlC/L6vXvzro78vZ+j9oy59qyr3+2uBW9YX6fVm9/tVBf19O1/+/7ndnHuLhH7GXp9NfG9yqvlC/L6vXvzro7wv6+9Lp//UvIlmAZ0gbaVH0HQAAPEgXkbpy+kdpLwr1+0L9vlC/L9Tvy5vVjytPAfX7Qv2+UL8v1O9LVz//dwIAAMAs4MoAAACzgCsDAADMAq4MAAAwC7gyAADALODKAAAAs4ArAwAAzAKuDAAAMAu4MgAAwCzgygAAALOAKwMAAMwCrgwAADALuDIAAMAs4MoAAACzoK7M3+TlC/X7snr9APA24MpTQP2+4MoAMAm48hRQvy+4MgBMAq48BdTvC64MAJPwJfeR8AXw2aSDIOjJAADwQH9WllspBQAfCPsfACYBVwZg/wPALODKAOx/AJgFXBmA/Q8As4ArA7D/AWAWcOX1+L59fd2+tQFnwP4HgEnAlS/iv79/RNTKn7//ac9DBCfOS+DKpyMfSCMAAFdw5YsIrnyRdeLKp8P+B4BJwJUvYujKkpQfeIOrRqS//EhtfpY2P2aXFawT48qnI1JrBADgCq58EXuuXKxWvbc21Je/b9mgTRJXvhb2PwBMAq58EWq6mWq+xU+bxtBpzQhc+VLkC2kEAOAKrnwRjedmDrlyyFc0iStfigitEQCAK7jyRTzqytZyzQhc+VLY/wAwCbjyRZzgyiG0cR6MK58O+x8AJgFXvojguZb4r20dcGU14zTl780m82Bc+XREbY0AAFzBlQHY/wAwC7gyAPsfAGYBVwZg/wPALODKAOx/AJiFr38RuZUAPpl0EAQ9GQAAHrzJz8rUD8+A/gAwCbjyFOAKvqA/AEwCrjwFuIIv6A8Ak4ArTwGu4Av6A8Ak4MpTgCv4gv4AMAm/ceXvm/27+S/isV8nOU/9j/FRrjDhbwzFlQFgEgauvHtpVlcb/pLnxwlPzEs8dmVLDRodqj+OqfhbhBSh0SxM94kvRV5QIwAAVx535Yvu1ceu7F/Wb8PkP84uMZ8rTPeJLwVXBoBJ+MmV649M8W8wuufKkpTuMDsi/WVycUC7YF3BPvGxK1tW0+hQ/WGMqcnOMPWZOkzWSKCUlcZzbXrvzaRLo1kIRW+qlaS8bJArIv3l3Yyco/e1EjcfaA6kVI0AAFy578rhfs3XbbyLjSVt7tV0Gae0Xsy1oRO/b3m5fum83GNX9i/rD40cdvXVp9d0iNqatpmYauZqY/zKHbb+ORi8ob6WplNsGkXC0ftaYW08CfPpDwAfyl1X7m7mamV6I2cGo5vG8Bo2I56/sqUIjQ7Vb8M4PjXC+JIW8qiQb4saZ2zCPiHTj6nY+ucgvmElld28QNMIIm5ezYyw/cOxvsgbagQA4MpdV+6uT2mq0Qzt5dCVHfIVTdrndM88iKylkV2hW0ua2ShDT6G4Z1tcJPflruq0XaavuwowfOUO6dBoFmr9hibZNMzrD9/XytNLNQFSqEYAAK7cdeXuZpYOtaBHr2x7H5sRNm3j4/yyfhsahq/VsK0uZ/q5+Ql2xv7687nCsNYm2TTKa+68r03beBJwZQCYhLuuHENjxE1jc6/+7soOoY3zYBsf55f1h44cWsKgUb6wffGSiQ/IfXWhrppudsbWPwfbNxWaZNMor7nzvibdxJMwn/4A8KHcd2X1msjtW+LG4ioxfeDK1ps6Tfl7s8k8+LErWxbU6FD9YcyO+7avVp01k1beZgIma1YvWfvKHdKr0Sy0OkzwiS9FqtUIAMCVgSuvCPXDM6A/AEwCrjwFuIIv6A8Ak4ArTwGu4Av6A8Ak4MpTgCv4gv4AMAlf/yJyKwF8MukgCHoyAAA84GflKVi9/tVBfwCYBFx5CnAFX9AfACYBV54CXMEX9AeAScCVpwBX8AX9AWAScOUpwBV8QX8AmARceQre2xUm/BWbHbgyAEzCeq6cfkFz91us36n+4GFd91mUX1GtXPSYgH0LXBkA4CBruXK66r/F19Z0Zcf60x8GWm+MJn2hM2dwZQCAg6zlyolgMGu6cuKH+kN39bDkpgnjbCY9zrY2uOuLtiOadCWkZUGptHRIqjzCvMGomH7h0mEZTBy+wrEynkAW0ggAwBVc+fX8UH/oVj+K3tP4VWp83/J8s9be4NTIE+VJwu2W/45FyaT5JTDD0zLaSLFp6PBhMfFJukgTG0K6Dg9RfEQeaRrp0TY2jbzEM8iCGgEAuIIrv54f6g/d1XOyRwWqcVbKmP3BpaekQkY7c85OH0zdNGRM87iIGWH7h2MH2eYBQqnjl2X8HlwZACYBV349P9RfXae3nNoTokrM7Q/O5lZMLvTVqBvVrFS7+0Y3qKJJ09/ElfrATD+uPPBQGc8gdWsEAOAKrvx6fqi/uk7jP0L2MWtFZcze4BiFjjqgzA8pHRTCQlmnWbRplDWGxbRpG1e22eYBgoxI1R0o4znknTUCAHAFV349P9RvXCeExXTqNGNFIdR4Z3A1tzggcPuO01IYh8RBJa6EKSXdNEoNJWiKsWkb2yJDutYYItsbG9p9oIznkLo1AgBwZS1Xjte+Id/pb1V/4zp2Shltsn/+/jV2Oh5s7O0eTXE6/pAdDosx/TYOa9RFYkunan2milrzoTKeQZ6mEQCAK2u58i7vVH/jOucQ3e+uMYcRZoCY3d3h7wauDACTgCtPga3/Ikc0P4QmGudvf+bsPPr9ETk0AgBwBVeeAq0//kx7yv8k+3v02YmPsmRBXlkjAABXcOUpwBV8QX8AmISvfxG5lQA+mXQQBD0ZAAAe8LPyFKxe/+qgPwBMAq48BbiCL+gPAJOAK08BruAL+gPAJODKU4Ar+IL+ADAJuPIU4Aq+oD8ATAKuPAWn1b/gL+Vqf4GJD7gyAEzCYq5sf9WFvcmlqdHcXF7/M67c//avC+09PCovjysDABSWcmXxtHyVR3urdzn1Kw+6cvrTQuuN0aQvdOYMrgwAUFjKlS3BR6plvFH9ybqjJQasLSbvTBgfq+n4lzbpjOjP0gykwTvT7/ii7SgVJUK6K1VS5RGmbPPY8pB+4dJhGUwcvsKxMu4iQzUCAHBlWVdu7/I3qj85itpJbOgwOyPkzZBsPtGZtJFcqjzCrrRtpDhNkZ5b/gsZJZOWK4EZnpbRRopNo5SRizPJ+CRdpIkNIV2Hhyg+Io80jfRoG5tGXuI+MkUjAABXFnXl/r59o/pDlzGpbIf9DJsfDE+uVju6YWZc6Skp86jRUwZTN4324YoZYfuHYwfZ5gFCqeOXZYzAlQFgEpZ05XDZqjEob1R/Zz7ZWEK6Iy7RGY80deW2oxtmnpJn1JnSV6NuVLNSU2rT6AZVNGn6m7hSH5jpx5UHHirjPlKZRgAArqznyuGm7e7rt6q/sZXqTl26sDO8d6R+ejMudNQBZWJI6aAQFso6zaJNo6xhqzAjbNrGlW22eYAgI1J1B8r4CXkrjQAAXFnLlcOVm42i4Y3qj2OsG27DhuA8ZkhpdI4U+3LbrpXNLU0Wbt9hqoZxSBw0cLcwpaSbRnm4qSKuauI82MS2yJCuNYbI9saGdh8o4yekMo0AAFxZypXjvd6Qr1wJUzA1h+pPtlKGWlOJtlTIlmXSt2+JNb91JPP4MjfNNs09mtp/Y4dlYvw3wk0yDzZxfJOySGzpVK3PVFFrPlTGfWQ9jQAAXFnKlfd5o/obW3kJ0f3uGnMYYQaI2d0dvh64MgBMAq48Ba6uHDA/hCaaEtqfOTuPfgfkhTUCAHAFV54CU7+PK/9E/Hk682aWLMhLaQQA4AquPAW4gi/oDwCT8PUvIrcSwCeTDoKgJwMAwAP9EWH1y4j6faF+AIBTwJWngPp9wZUBYBJw5Smgfl9wZQCYBP4lFwAAgDn43//+DzFWOMUxNs0AAAAAAElFTkSuQmCC;" vertex="1" parent="1">
          <mxGeometry x="630" y="70" width="647" height="188" as="geometry" />
        </mxCell>
        <mxCell id="7JLwXJkkDd5_s9MITKsb-76" value="Modelo Conceitual" style="text;html=1;align=center;verticalAlign=middle;resizable=0;points=[];autosize=1;strokeColor=#6c8ebf;fillColor=#dae8fc;fontSize=11;fontFamily=Helvetica;" vertex="1" parent="1">
          <mxGeometry x="30" y="10" width="110" height="30" as="geometry" />
        </mxCell>
        <mxCell id="7JLwXJkkDd5_s9MITKsb-77" value="Modelo fisico" style="text;html=1;align=center;verticalAlign=middle;resizable=0;points=[];autosize=1;strokeColor=#6c8ebf;fillColor=#dae8fc;fontSize=11;fontFamily=Helvetica;" vertex="1" parent="1">
          <mxGeometry x="630" y="10" width="90" height="30" as="geometry" />
        </mxCell>
        <mxCell id="7JLwXJkkDd5_s9MITKsb-78" value="Modelo Logico" style="text;html=1;align=center;verticalAlign=middle;resizable=0;points=[];autosize=1;strokeColor=#6c8ebf;fillColor=#dae8fc;fontSize=11;fontFamily=Helvetica;" vertex="1" parent="1">
          <mxGeometry x="40" y="398" width="100" height="30" as="geometry" />
        </mxCell>
      </root>
    </mxGraphModel>
  </diagram>
</mxfile>
